<?xml version="1.0" standalone="no"?>
<!DOCTYPE svg PUBLIC "-//W3C//DTD SVG 20010904//EN"
 "http://www.w3.org/TR/2001/REC-SVG-20010904/DTD/svg10.dtd">
<svg version="1.0" xmlns="http://www.w3.org/2000/svg"
 width="1728.000000pt" height="1728.000000pt" viewBox="0 0 1728.000000 1728.000000"
 preserveAspectRatio="xMidYMid meet">
<metadata>
Created by potrace 1.11, written by Peter Selinger 2001-2013
</metadata>
<g transform="translate(0.000000,1728.000000) scale(0.100000,-0.100000)"
fill="#000000" stroke="none">
<path d="M8759 16096 c-5 -5 -145 -50 -184 -60 -5 -1 -50 -15 -100 -30 -99
-30 -108 -33 -115 -35 -3 0 -43 -14 -90 -29 -47 -16 -89 -30 -95 -31 -5 0 -32
-8 -60 -17 -27 -8 -56 -17 -63 -20 -7 -2 -14 -4 -17 -4 -3 0 -24 -8 -47 -16
-24 -9 -50 -17 -58 -19 -23 -5 -301 -92 -332 -104 -16 -6 -28 -8 -28 -6 0 2
-12 0 -27 -6 -33 -13 -205 -68 -248 -79 -16 -4 -73 -22 -125 -38 -146 -46
-641 -200 -770 -239 -63 -19 -122 -37 -130 -40 -8 -3 -19 -7 -25 -8 -5 -2 -77
-24 -160 -50 -82 -26 -206 -64 -275 -85 -69 -21 -177 -55 -240 -74 -63 -20
-158 -50 -210 -66 -89 -27 -300 -92 -470 -145 -41 -13 -127 -40 -190 -60 -63
-20 -128 -40 -145 -44 -16 -5 -104 -32 -195 -61 -91 -28 -172 -53 -180 -55 -8
-2 -16 -4 -17 -5 -2 -2 -6 -3 -10 -4 -5 -1 -35 -10 -68 -20 -33 -10 -64 -19
-70 -21 -5 -1 -17 -5 -25 -8 -19 -8 -245 -78 -262 -81 -7 -2 -20 -6 -28 -9
-25 -9 -145 -47 -166 -52 -10 -2 -68 -20 -129 -39 -233 -73 -730 -228 -740
-230 -5 -1 -26 -7 -45 -13 -57 -19 -331 -104 -385 -120 -27 -8 -59 -18 -70
-23 -28 -11 -197 -62 -215 -65 -8 -1 -28 -7 -44 -14 -16 -6 -36 -13 -45 -14
-16 -3 -135 -40 -331 -103 -58 -18 -156 -49 -219 -67 -101 -31 -137 -49 -126
-67 3 -5 9 -87 20 -285 5 -91 15 -240 21 -335 3 -47 7 -112 9 -145 14 -246 15
-255 31 -490 3 -49 8 -117 9 -150 2 -33 6 -105 10 -160 3 -55 8 -129 10 -165
2 -36 4 -65 5 -65 0 0 3 -40 5 -90 3 -49 7 -119 9 -155 3 -36 7 -112 11 -170
3 -58 8 -127 10 -155 2 -27 7 -102 10 -165 4 -63 8 -137 10 -165 2 -27 7 -97
10 -155 10 -169 19 -311 31 -485 2 -33 6 -105 9 -160 3 -55 8 -127 10 -160 3
-33 7 -103 10 -155 3 -52 8 -126 10 -165 3 -38 7 -108 10 -155 11 -192 15
-249 20 -325 4 -44 8 -111 9 -150 2 -38 7 -108 10 -155 6 -91 12 -174 21 -335
4 -55 8 -129 11 -165 4 -66 11 -169 19 -315 11 -192 15 -245 30 -470 4 -44 8
-116 10 -160 2 -44 6 -120 10 -170 15 -223 17 -251 29 -475 3 -47 8 -119 11
-160 8 -106 15 -231 20 -330 2 -47 7 -116 10 -155 3 -38 8 -110 10 -160 3 -49
7 -124 10 -165 3 -41 7 -109 10 -150 4 -72 10 -160 21 -335 6 -100 13 -214 19
-330 14 -248 27 -400 33 -407 4 -3 21 -14 39 -25 18 -10 70 -42 117 -70 47
-29 89 -53 95 -53 5 0 11 -4 13 -8 2 -4 84 -57 183 -116 99 -60 203 -124 232
-142 28 -19 56 -34 62 -34 6 0 11 -4 11 -10 0 -5 5 -10 11 -10 5 0 26 -11 46
-24 l35 -24 77 33 c42 18 101 44 131 58 180 82 621 277 628 277 4 0 8 -10 9
-22 1 -44 14 -344 18 -413 2 -38 7 -137 11 -220 3 -82 7 -172 9 -198 2 -56 2
-55 80 -100 33 -19 110 -65 170 -102 152 -94 156 -96 222 -134 32 -18 60 -36
63 -40 6 -8 40 -29 60 -38 8 -3 39 -21 68 -40 29 -18 57 -33 62 -33 6 0 10 -3
10 -8 0 -4 9 -12 19 -17 11 -6 50 -28 88 -50 37 -22 75 -38 83 -36 8 2 78 33
155 70 77 37 178 85 225 107 47 21 88 42 91 47 3 5 8 8 10 7 2 -1 17 3 32 9
16 6 31 11 34 11 4 0 14 6 22 13 9 7 45 26 81 42 36 15 105 47 154 71 50 24
91 42 93 41 3 -4 10 -195 18 -472 14 -507 15 -518 35 -537 11 -10 24 -18 30
-18 5 0 10 -4 10 -8 0 -4 12 -13 28 -19 15 -7 70 -39 122 -72 52 -34 106 -67
120 -73 14 -7 27 -15 30 -18 3 -3 14 -10 25 -17 11 -6 66 -40 123 -75 57 -35
119 -72 138 -83 19 -11 85 -51 147 -89 62 -38 124 -75 139 -83 15 -8 30 -18
33 -24 4 -5 19 -3 35 6 17 9 32 14 34 13 2 -2 12 4 22 13 16 14 45 29 64 33 3
1 14 7 25 14 53 32 275 140 275 134 0 -4 4 -2 8 4 9 13 533 276 539 270 2 -2
6 -154 8 -337 9 -701 10 -767 15 -771 18 -15 194 -118 200 -118 5 0 10 -3 12
-7 2 -5 59 -42 128 -83 69 -41 127 -77 130 -80 3 -3 16 -11 30 -18 30 -14 54
-29 97 -59 17 -13 34 -23 37 -23 3 0 37 -20 76 -45 39 -25 72 -45 75 -45 2 0
24 -13 48 -30 25 -16 49 -30 55 -30 6 0 12 -3 14 -7 5 -11 124 -83 137 -83 7
0 42 16 79 37 37 20 105 56 152 81 47 25 105 56 130 70 25 14 81 44 125 67
150 79 170 90 175 95 3 3 34 20 70 38 36 17 115 59 175 92 61 33 134 72 163
87 l52 26 0 206 c2 454 8 972 12 976 2 3 30 -11 61 -29 31 -19 57 -32 57 -29
0 3 8 -1 18 -9 9 -8 42 -29 72 -45 30 -17 73 -40 95 -53 22 -13 60 -34 84 -48
76 -42 145 -82 161 -92 8 -5 35 -20 60 -33 25 -14 61 -34 80 -46 19 -11 46
-26 60 -33 24 -12 208 -118 240 -138 8 -5 30 -17 49 -27 l34 -17 76 40 c42 23
108 58 146 79 39 20 97 52 130 70 33 18 96 52 140 75 171 92 232 124 280 150
28 15 95 51 150 80 55 29 106 58 113 64 9 9 14 67 17 207 3 107 7 282 11 389
3 107 7 255 8 328 2 73 6 135 9 138 4 5 146 -64 157 -77 3 -3 37 -21 75 -40
39 -19 72 -36 75 -39 3 -3 30 -18 60 -33 154 -80 326 -171 335 -177 9 -6 162
-88 249 -134 29 -15 59 -9 96 19 8 7 38 23 65 37 69 36 137 72 155 83 8 5 17
10 20 10 3 0 56 28 118 63 62 34 115 62 118 62 3 0 19 9 35 21 16 11 29 17 29
12 0 -4 4 -3 8 2 7 9 28 22 147 83 28 14 62 34 78 44 15 11 27 16 27 12 0 -4
8 0 18 8 9 9 26 18 37 22 11 3 30 14 42 24 20 16 22 29 28 167 4 83 8 191 11
240 2 50 6 140 8 200 9 196 18 360 21 363 4 4 135 -60 141 -69 3 -5 12 -9 20
-9 8 0 31 -11 52 -24 20 -12 39 -23 42 -23 10 -1 515 -255 525 -264 5 -5 15
-9 22 -9 7 0 32 -12 56 -27 23 -14 43 -26 45 -25 73 38 234 125 313 167 57 32
113 61 124 66 11 5 38 20 60 32 37 21 213 116 295 159 111 58 135 75 137 93 0
11 4 67 8 125 3 58 8 132 11 165 2 33 6 98 8 145 3 47 8 121 11 165 5 78 11
170 20 325 2 41 7 113 10 160 3 47 7 117 10 156 2 39 6 118 10 176 4 59 8 130
10 160 6 104 17 264 20 318 3 30 7 100 10 155 3 55 8 132 10 170 2 39 7 106 9
150 6 94 13 203 22 335 3 52 7 118 9 147 2 29 6 57 10 63 3 5 1 10 -5 10 -6 0
-9 4 -6 9 6 9 12 86 21 241 3 52 7 124 10 160 3 36 7 112 11 170 3 58 7 128 9
155 2 28 6 97 9 155 4 58 9 134 12 170 2 36 7 108 9 160 5 92 8 140 19 305 3
44 8 123 11 175 3 52 8 122 10 155 2 33 6 105 9 160 4 55 8 127 11 160 4 54
12 179 20 335 6 95 15 242 20 320 6 81 13 191 20 310 2 41 6 109 9 150 3 41 8
118 11 170 3 52 7 129 10 170 3 41 8 111 10 155 2 44 7 121 10 170 3 50 8 122
10 160 2 39 7 106 10 150 3 44 8 121 10 170 8 134 18 293 31 495 4 63 8 150 8
192 1 43 3 78 6 78 3 0 5 15 6 33 2 53 13 258 19 343 12 169 15 222 20 314 11
194 14 237 16 246 5 26 -13 36 -153 84 -84 28 -162 56 -173 60 -11 5 -49 18
-85 30 -66 22 -283 97 -310 107 -8 3 -19 7 -25 9 -14 3 -315 110 -347 123 -16
6 -28 8 -28 5 0 -2 -9 0 -21 6 -11 6 -86 34 -167 61 -81 27 -155 54 -164 59
-10 6 -27 10 -37 10 -11 0 -23 5 -26 10 -3 6 -15 10 -26 10 -10 0 -27 4 -37
10 -9 5 -46 19 -82 30 -36 12 -74 25 -85 30 -29 12 -206 72 -219 74 -6 1 -16
5 -22 8 -6 4 -44 18 -85 32 -148 49 -404 137 -424 146 -11 5 -47 17 -80 28
-33 11 -152 52 -265 92 -113 39 -232 80 -265 91 -33 11 -67 23 -75 26 -8 3
-19 7 -25 9 -5 1 -89 30 -185 64 -96 34 -179 63 -185 64 -5 1 -14 4 -20 8 -5
3 -39 15 -75 26 -36 11 -130 44 -210 72 -80 28 -176 62 -215 75 -38 13 -162
56 -275 95 -113 40 -216 76 -230 80 -14 5 -124 43 -245 85 -121 43 -245 85
-275 95 -30 10 -147 51 -260 90 -113 39 -209 73 -215 74 -5 2 -19 6 -30 10
-43 16 -50 19 -60 22 -5 1 -75 26 -155 54 -80 28 -149 53 -155 54 -5 2 -17 6
-25 9 -16 7 -191 67 -270 93 -25 8 -52 18 -60 21 -8 3 -20 7 -26 8 -11 3 -70
23 -249 88 -33 12 -64 22 -70 24 -5 1 -80 26 -165 56 -85 30 -184 64 -220 76
-36 12 -73 27 -83 32 -23 12 -110 23 -118 15z"/>
</g>
</svg>
